<?xml version="1.0" encoding="UTF-8"?>
<svg width="700pt" height="700pt" version="1.1" viewBox="0 0 700 700" xmlns="http://www.w3.org/2000/svg">
 <path d="m513.33 93.332h-326.66c-12.781 0-23.336 10.555-23.336 23.336v326.66c0 12.781 10.555 23.336 23.336 23.336h326.66c12.781 0 23.336-10.555 23.336-23.336v-326.66c0-12.781-10.555-23.336-23.336-23.336zm0-23.332c25.668 0 46.668 21 46.668 46.668v326.66c0 25.668-21 46.668-46.668 46.668h-326.66c-25.668 0-46.668-21-46.668-46.668v-326.66c0-25.668 21-46.668 46.668-46.668z"/>
</svg>
